# xmcd
#
# Track frame offsets:
#	150
#	24110
#	50083
#	74262
#	93014
#	119453
#	142388
#	165698
#	180756
#	194904
#	215120
#	240173
#	257675
#	276347
#	295540
#
# Disc length: 4273 seconds
#
# Revision: 2
# Processed by: cddbd v1.5.2PL0 Copyright (c) Steve Scherf et al.
# Submitted via: audiograbber 1.83.01
#
DISCID=de10af0f
DTITLE=Various Artist - Mastermix Extended Floor Fillers Vol 11
DYEAR=1900
DGENRE=
TTITLE0=PSY - Gangnam Style
TTITLE1=Spandau Ballet - Gold
TTITLE2=West End Ft. Sybil - The Love I Lost
TTITLE3=Bay City Rollers - Shang A Lang
TTITLE4=Outkast - Hey Ya!
TTITLE5=AC/DC - You Shook Me All Night Long
TTITLE6=J Geils Band - Centerfold
TTITLE7=The Special AKA - Too Much Too Young
TTITLE8=Swinging Blue Jeans - Hippy Hippy Shake
TTITLE9=Archies - Sugar Sugar
TTITLE10=Abba - Mamma Mia
TTITLE11=T Rex - I Love To Boogie
TTITLE12=The Supremes - Where Did Our Love Go
TTITLE13=Dave Clark Five - Glad All Over
TTITLE14=LMFAO - Sexy and I Know It
EXTD=
EXTT0=
EXTT1=
EXTT2=
EXTT3=
EXTT4=
EXTT5=
EXTT6=
EXTT7=
EXTT8=
EXTT9=
EXTT10=
EXTT11=
EXTT12=
EXTT13=
EXTT14=
PLAYORDER=
